<svg width="1440" height="1140" viewBox="0 0 1440 1140" fill="none" xmlns="http://www.w3.org/2000/svg">
<g opacity="0.09">
<line x1="-168" y1="856.644" x2="1343.58" y2="856.644" stroke="#222020" stroke-opacity="0.2" stroke-width="1.2607"/>
<line x1="-168" y1="533.906" x2="1343.58" y2="533.906" stroke="#222020" stroke-opacity="0.2" stroke-width="1.2607"/>
<line x1="-168" y1="211.166" x2="1343.58" y2="211.166" stroke="#222020" stroke-opacity="0.2" stroke-width="1.2607"/>
<line x1="-168" y1="695.274" x2="1343.58" y2="695.274" stroke="#222020" stroke-opacity="0.2" stroke-width="1.2607"/>
<line x1="-168" y1="1018.01" x2="1343.58" y2="1018.01" stroke="#222020" stroke-opacity="0.2" stroke-width="1.2607"/>
<line x1="-168" y1="372.536" x2="1343.58" y2="372.536" stroke="#222020" stroke-opacity="0.2" stroke-width="1.2607"/>
<line x1="-168" y1="49.7974" x2="1343.58" y2="49.7974" stroke="#222020" stroke-opacity="0.2" stroke-width="1.2607"/>
<line x1="-168" y1="775.959" x2="1343.58" y2="775.959" stroke="#222020" stroke-opacity="0.2" stroke-width="1.2607"/>
<line x1="-168" y1="1098.7" x2="1343.58" y2="1098.7" stroke="#222020" stroke-opacity="0.2" stroke-width="1.2607"/>
<line x1="-168" y1="453.221" x2="1343.58" y2="453.221" stroke="#222020" stroke-opacity="0.2" stroke-width="1.2607"/>
<line x1="-168" y1="130.482" x2="1343.58" y2="130.482" stroke="#222020" stroke-opacity="0.2" stroke-width="1.2607"/>
<line x1="-168" y1="614.589" x2="1343.58" y2="614.589" stroke="#222020" stroke-opacity="0.2" stroke-width="1.2607"/>
<line x1="-168" y1="937.329" x2="1343.58" y2="937.329" stroke="#222020" stroke-opacity="0.2" stroke-width="1.2607"/>
<line x1="-168" y1="291.851" x2="1343.58" y2="291.851" stroke="#222020" stroke-opacity="0.2" stroke-width="1.2607"/>
<line x1="524.756" y1="182.801" x2="524.756" y2="1350.21" stroke="#222020" stroke-opacity="0.2" stroke-width="1.2607"/>
<line x1="202.016" y1="182.801" x2="202.016" y2="1350.21" stroke="#222020" stroke-opacity="0.2" stroke-width="1.2607"/>
<line x1="847.492" y1="182.801" x2="847.492" y2="1350.21" stroke="#222020" stroke-opacity="0.2" stroke-width="1.2607"/>
<line x1="1170.23" y1="182.801" x2="1170.23" y2="1350.21" stroke="#222020" stroke-opacity="0.2" stroke-width="1.2607"/>
<line x1="40.6455" y1="182.801" x2="40.6454" y2="1350.21" stroke="#222020" stroke-opacity="0.2" stroke-width="1.2607"/>
<line x1="686.122" y1="182.801" x2="686.122" y2="1350.21" stroke="#222020" stroke-opacity="0.2" stroke-width="1.2607"/>
<line x1="363.386" y1="182.801" x2="363.386" y2="1350.21" stroke="#222020" stroke-opacity="0.2" stroke-width="1.2607"/>
<line x1="1008.86" y1="182.801" x2="1008.86" y2="1350.21" stroke="#222020" stroke-opacity="0.2" stroke-width="1.2607"/>
<line x1="1331.6" y1="182.801" x2="1331.6" y2="1350.21" stroke="#222020" stroke-opacity="0.2" stroke-width="1.2607"/>
<line x1="605.439" y1="182.801" x2="605.439" y2="1350.21" stroke="#222020" stroke-opacity="0.2" stroke-width="1.2607"/>
<line x1="282.699" y1="182.801" x2="282.699" y2="1350.21" stroke="#222020" stroke-opacity="0.2" stroke-width="1.2607"/>
<line x1="928.179" y1="182.801" x2="928.179" y2="1350.21" stroke="#222020" stroke-opacity="0.2" stroke-width="1.2607"/>
<line x1="1250.92" y1="182.801" x2="1250.92" y2="1350.21" stroke="#222020" stroke-opacity="0.2" stroke-width="1.2607"/>
<line x1="121.333" y1="182.801" x2="121.333" y2="1350.21" stroke="#222020" stroke-opacity="0.2" stroke-width="1.2607"/>
<line x1="766.809" y1="182.801" x2="766.809" y2="1350.21" stroke="#222020" stroke-opacity="0.2" stroke-width="1.2607"/>
<line x1="444.069" y1="182.801" x2="444.069" y2="1350.21" stroke="#222020" stroke-opacity="0.2" stroke-width="1.2607"/>
<line x1="1089.55" y1="182.801" x2="1089.55" y2="1350.21" stroke="#222020" stroke-opacity="0.2" stroke-width="1.2607"/>
<line x1="1412.29" y1="182.801" x2="1412.29" y2="1350.21" stroke="#222020" stroke-opacity="0.2" stroke-width="1.2607"/>
</g>
<g opacity="0.5">
<rect x="880.847" y="1017.96" width="80.2262" height="80.2262" fill="#17ABEC" fill-opacity="0.5"/>
<rect x="477.423" y="1017.96" width="80.2262" height="80.2262" fill="#17ABEC" fill-opacity="0.1"/>
<rect x="1204.04" y="454.08" width="80.2262" height="79.0801" fill="#17ABEC" fill-opacity="0.15"/>
<rect x="557.65" y="695.854" width="80.2262" height="79.0801" fill="#17ABEC" fill-opacity="0.15"/>
<rect x="1122.67" y="534.306" width="80.2262" height="79.0801" fill="#17ABEC" fill-opacity="0.15"/>
<rect x="477.277" y="454.08" width="80.2262" height="79.0801" fill="#17ABEC" fill-opacity="0.15"/>
<rect x="1122.67" y="454.08" width="80.2262" height="79.0801" fill="#17ABEC" fill-opacity="0.15"/>
<rect x="477.277" y="695.854" width="80.2262" height="79.0801" fill="#17ABEC" fill-opacity="0.15"/>
<rect x="397.197" y="1017.96" width="80.2262" height="80.2262" fill="#17ABEC" fill-opacity="0.1"/>
<rect x="397.197" y="1098.18" width="80.2262" height="81.3723" fill="#17ABEC" fill-opacity="0.1"/>
<rect x="235.599" y="937.729" width="80.2262" height="80.2262" fill="#17ABEC" fill-opacity="0.1"/>
<rect x="1042.45" y="292.481" width="80.2262" height="80.2262" fill="#17ABEC" fill-opacity="0.15"/>
<rect x="961.342" y="211.794" width="80.2262" height="79.5062" fill="#17ABEC" fill-opacity="0.15"/>
<rect x="961.342" y="292.052" width="80.2262" height="80.0285" fill="#17ABEC" fill-opacity="0.15"/>
<rect x="235.599" y="371.561" width="81.3723" height="82.5184" fill="#17ABEC" fill-opacity="0.1"/>
<rect x="154.226" y="291.335" width="81.3723" height="80.2262" fill="#17ABEC" fill-opacity="0.1"/>
<rect x="74" y="292.481" width="81.3723" height="80.2262" fill="#17ABEC" fill-opacity="0.1"/>
<rect x="154.226" y="371.561" width="81.3723" height="82.5184" fill="#17ABEC" fill-opacity="0.1"/>
<rect x="477.423" y="211.109" width="81.3723" height="80.2262" fill="#17ABEC" fill-opacity="0.15"/>
<rect x="235.599" y="533.16" width="80.2262" height="81.3723" fill="#17ABEC" fill-opacity="0.1"/>
<rect x="1204.04" y="937.729" width="80.2262" height="80.2262" fill="#17ABEC" fill-opacity="0.15"/>
<rect x="1284.27" y="1017.96" width="80.2262" height="80.2262" fill="#17ABEC" fill-opacity="0.15"/>
</g>
</svg>
